# xmcd
#
# Track frame offsets:
#	150
#	12390
#	24116
#	43097
#	56384
#	71663
#	85480
#	95842
#	107618
#	116467
#	128011
#	143154
#	156569
#	171939
#	184537
#	197948
#
# Disc length: 2771 seconds
#
# Revision: 0
# Processed by: cddbd v1.5.2PL0 Copyright (c) Steve Scherf et al.
# Submitted via: EasyCDDAExtractor 16.0.6.1
#
DISCID=dc0ad110
DTITLE=Ζαγοραίος Σπύρος - Σπύρος Ζαγοραίος 03
DYEAR=2010
DGENRE=Ποικίλη
TTITLE0=Ντόλτσε βίτα [Θ. Δερβενιώτης-Κ. Βίρβος]
TTITLE1=Λίγο, λίγο θα με συνηθίσεις [Α. Καλδάρας-Ε. Παπαγιαννοπούλου]
TTITLE2=Φεύγει το τραίνο [Σ. Ζαγοραίος]
TTITLE3=Μέσ' στης Πεντέλης τα βουνά [Σ. Παγιουμτζής-Ν. Βασιλάκης]
TTITLE4=Ένας αλήτης [Σ. Ζαγοραίος]
TTITLE5=Παλάτια σού 'χτισα [Γ. Μπιθικώτσης-Γ. Παπαδόπουλος]
TTITLE6=Αφού χωρίσαμε, τι θες [Σ. Ζαγοραίος]
TTITLE7=Δεν τα λυπάμαι τα λεφτά (Σε γελάσανε) [Σ. Ζαγοραίος]
TTITLE8=Το πρόβλημα το λύσαμε [Σ. Ζαγοραίος]
TTITLE9=Ο εργάτης [Κ. Σκαρβέλης]
TTITLE10=Μπιρ αλλάχ [Γ. Σταμούλης-Χ. Βασιλειάδης]
TTITLE11=Σιγά, ρε φίλε [Ρένα Καζάκου-Γ. Σιδέρης]
TTITLE12=Όσοι έχουνε πολλά λεφτά [Μ. Βαμβακάρης]
TTITLE13=Αμ, όχι καλέ [Κατ. Κόρου-ιδίας κ Βασιλική Ζαΐμη]
TTITLE14=Μιά αμαρτία μου παλιά [Γ. Καπλάνογλου-Λ. Μπουρνέλης]
TTITLE15=Την πάτησα [Γ. Κόρος-Χαρ. Δρίγκου]
EXTD=
EXTT0=
EXTT1=
EXTT2=
EXTT3=
EXTT4=
EXTT5=
EXTT6=
EXTT7=
EXTT8=
EXTT9=
EXTT10=
EXTT11=
EXTT12=
EXTT13=
EXTT14=
EXTT15=
PLAYORDER=
